<svg xmlns="http://www.w3.org/2000/svg" xmlns:xlink="http://www.w3.org/1999/xlink" xmlns:serif="http://www.serif.com/" viewBox="0 0 32 40" version="1.1" xml:space="preserve" style="" x="0px" y="0px" fill-rule="evenodd" clip-rule="evenodd" stroke-linejoin="round" stroke-miterlimit="2"><g transform="matrix(1,0,0,1,-192,-336)"><g><path d="M197,341L197,363C197,363.774 197.504,364.6 198.616,365.244C200.377,366.262 203.915,367 208,367C212.085,367 215.623,366.262 217.384,365.244C218.496,364.6 219,363.774 219,363C219,363 219,340.982 219,340.982C218.992,340.213 218.488,339.395 217.384,338.756C215.623,337.738 212.085,337 208,337C203.915,337 200.377,337.738 198.616,338.756C197.504,339.4 197,340.226 197,341ZM217,357.948C215.139,358.859 211.806,359.5 208,359.5C204.193,359.5 200.86,358.859 199,357.948L199,363C199,363.084 199.096,363.129 199.179,363.205C199.441,363.44 199.829,363.649 200.309,363.846C202.044,364.555 204.845,365 208,365C211.155,365 213.956,364.555 215.691,363.846C216.171,363.649 216.559,363.44 216.821,363.205C216.904,363.129 217,363.084 217,363L217,357.948ZM217,350.948C215.139,351.859 211.806,352.5 208,352.5C204.193,352.5 200.86,351.859 199,350.948L199,355.499C199.001,355.585 199.098,355.632 199.184,355.709C199.448,355.945 199.837,356.153 200.319,356.35C202.054,357.057 204.851,357.5 208,357.5C211.155,357.5 213.956,357.055 215.691,356.346C216.171,356.149 216.559,355.94 216.821,355.705C216.904,355.629 217,355.584 217,355.5L217,350.948ZM217,343.448C215.139,344.359 211.806,345 208,345C204.194,345 200.861,344.359 199,343.448L199,348.499C199.001,348.585 199.098,348.632 199.184,348.709C199.448,348.945 199.837,349.153 200.319,349.35C202.054,350.057 204.851,350.5 208,350.5C211.155,350.5 213.956,350.055 215.691,349.346C216.171,349.149 216.559,348.94 216.821,348.705C216.904,348.629 217,348.584 217,348.5L217,343.448ZM208,339C211.155,339 213.956,339.445 215.691,340.154C216.171,340.351 216.559,340.56 216.821,340.795C216.904,340.871 217,340.916 217,341C217,341.084 216.904,341.129 216.821,341.205C216.559,341.44 216.171,341.649 215.691,341.846C213.956,342.555 211.155,343 208,343C204.845,343 202.044,342.555 200.309,341.846C199.829,341.649 199.441,341.44 199.179,341.205C199.096,341.129 199,341.084 199,341C199,340.916 199.096,340.871 199.179,340.795C199.441,340.56 199.829,340.351 200.309,340.154C202.044,339.445 204.845,339 208,339Z"/></g></g><text x="0" y="47" fill="#000000" font-size="5px" font-weight="bold" font-family="'Helvetica Neue', Helvetica, Arial-Unicode, Arial, Sans-serif">Created by Alfan Zulkarnain</text><text x="0" y="52" fill="#000000" font-size="5px" font-weight="bold" font-family="'Helvetica Neue', Helvetica, Arial-Unicode, Arial, Sans-serif">from the Noun Project</text></svg>