<?xml version="1.0" encoding="UTF-8"?>
<svg width="1200pt" height="1200pt" version="1.1" viewBox="0 0 1200 1200" xmlns="http://www.w3.org/2000/svg">
 <path d="m842.16 228c-7.0117-0.011719-14.004 0.67188-20.879 2.0391l-480 91.68c-25.008 4.4023-47.66 17.473-63.988 36.914-16.328 19.445-25.281 44.02-25.293 69.406v343.92c0.011719 25.281 8.8945 49.758 25.102 69.164 16.203 19.406 38.703 32.512 63.578 37.035l480 91.68c31.184 6.4648 63.617-1.457 88.312-21.566 24.695-20.109 39.02-50.27 39.008-82.113v-532.32c-0.03125-28.062-11.191-54.965-31.035-74.805-19.84-19.844-46.742-31.004-74.805-31.035zm-302.16 613.32-186.48-33.961c-8.3867-1.5312-15.957-5.9922-21.363-12.586s-8.2969-14.891-8.1562-23.414v-135.36h216zm0-277.32h-216v-135.96c-0.14062-8.5234 2.75-16.82 8.1562-23.414 5.4062-6.5898 12.977-11.051 21.363-12.586l186.48-33.359zm336 302.16c0 8.9766-3.5664 17.582-9.9102 23.93-6.3477 6.3438-14.953 9.9102-23.93 9.9102-2.2578-0.011719-4.5117-0.25-6.7188-0.71875l-223.44-45.121v-218.16h264zm0-302.16h-264v-218.16l223.44-45.121c2.207-0.46484 4.4609-0.70703 6.7188-0.71875 8.9766 0 17.582 3.5664 23.93 9.9102 6.3438 6.3477 9.9102 14.953 9.9102 23.93z"/>
</svg>
